<?xml version="1.0" encoding="utf-8"?>
<svg version="1.1" xmlns="http://www.w3.org/2000/svg" width="243" height="175">
  <path d="M 8.406 11.26 C 85.923 -0.062 196.904 2.17 230.501 11.26 C 235.319 62.392 236.805 134.865 227.093 152.698 C 163.57 175.951 42.778 161.626 8.406 156.275 C 0.576 105.416 3.278 60.593 8.406 11.26 Z" style="transform-box: fill-box; transform-origin: 50% 50%; fill: rgb(191, 205, 68);" transform="matrix(-0.999948, -0.010194, 0.010194, -0.999948, 1.150422, -1.601611)"/>
  <path d="M0 0 C3.70857466 1.06765464 6.77709442 2.98836796 10.0078125 5.0625 C10.98113525 5.68560059 11.95445801 6.30870117 12.95727539 6.95068359 C14.00262451 7.62695801 15.04797363 8.30323242 16.125 9 C17.21868896 9.70334473 18.31237793 10.40668945 19.43920898 11.13134766 C28.29190255 16.83738298 37.05423701 22.67676434 45.80236816 28.54138184 C52.85407737 33.26795713 59.93906088 37.9127509 67.17407227 42.35449219 C76.28261243 47.97593043 85.1214418 54.02484429 94 60 C93.67 60.99 93.34 61.98 93 63 C84.69677986 66.993867 75.0580839 66.4336661 66.07055664 66.40405273 C64.49236064 66.40976653 62.91416876 66.41673466 61.33598328 66.42485046 C57.07970595 66.44268501 52.82363587 66.44163199 48.56733251 66.43590808 C45.00145075 66.43280229 41.43560802 66.43892401 37.86973184 66.44494683 C29.45161392 66.4589584 21.03359756 66.45745873 12.61547852 66.44604492 C3.95791543 66.43456519 -4.69933782 66.44864459 -13.3568601 66.4754414 C-20.81625312 66.49765731 -28.27554929 66.5042226 -35.73497301 66.49836498 C-40.17863014 66.49500849 -44.62208869 66.49732301 -49.0657177 66.51461601 C-53.24627006 66.53017761 -57.42636623 66.52602856 -61.60690117 66.50731087 C-63.13218606 66.50365041 -64.65750546 66.50665835 -66.18275833 66.51719666 C-75.31448217 66.57542453 -83.59418711 65.92268946 -92 62 C-92.66 61.34 -93.32 60.68 -94 60 C-85.45086502 53.75847215 -76.48525846 48.19694907 -67.52001953 42.58056641 C-63.50707567 40.06363184 -59.5039083 37.53127315 -55.5 35 C-53.9101949 33.99603254 -52.32035112 32.99212634 -50.73046875 31.98828125 C-47.62792965 30.02888348 -44.52642718 28.06786085 -41.42578125 26.10546875 C-31.24976526 19.6677133 -21.04909687 13.27043424 -10.83129883 6.89916992 C-9.85572021 6.29049072 -8.8801416 5.68181152 -7.875 5.0546875 C-7.00617188 4.51312012 -6.13734375 3.97155273 -5.2421875 3.41357422 C-3.47825998 2.30151626 -1.73500208 1.15666805 0 0 Z " fill="#EC1B23" transform="translate(119,87)"/>
  <path d="M0 0 C5.9106658 5.75911027 5.9106658 5.75911027 6.13701439 8.90318775 C6.14258669 9.68390487 6.14815899 10.46462198 6.15390015 11.26899719 C6.16250061 12.16483521 6.17110107 13.06067322 6.17996216 13.98365784 C6.18422211 14.96914108 6.18848206 15.95462433 6.19287109 16.9699707 C6.20513733 18.52380966 6.20513733 18.52380966 6.21765137 20.10903931 C6.24252874 23.54794734 6.25902661 26.98681407 6.2734375 30.42578125 C6.27876118 31.59819052 6.28408485 32.77059978 6.28956985 33.97853661 C6.31631044 40.18286867 6.33568327 46.38718054 6.35009766 52.59155273 C6.366756 59.00785888 6.4115418 65.42365245 6.4624691 71.8397646 C6.49608282 76.76652128 6.50766865 81.69315537 6.51332474 86.6200161 C6.52005244 88.98555612 6.53531361 91.35108766 6.55921555 93.71651649 C6.59074529 97.02538785 6.59092172 100.3328643 6.58349609 103.6418457 C6.59990143 104.62125626 6.61630676 105.60066681 6.63320923 106.60975647 C6.56510828 114.0129724 6.56510828 114.0129724 3.46353149 117.14738464 C2.6505661 117.75874771 1.83760071 118.37011078 1 119 C0.22624023 118.49251221 -0.54751953 117.98502441 -1.34472656 117.4621582 C-21.02285462 104.55733587 -21.02285462 104.55733587 -40.74121094 91.71411133 C-46.99993538 87.65159979 -53.25108808 83.5775875 -59.5 79.5 C-69.99194725 72.65425973 -80.49358078 65.82350513 -91 59 C-86.77498591 54.29113972 -81.96460564 51.29908494 -76.5625 48.0625 C-74.66978548 46.91014652 -72.77788404 45.75645672 -70.88671875 44.6015625 C-69.91395996 44.00891602 -68.94120117 43.41626953 -67.93896484 42.80566406 C-63.21620527 39.90405833 -58.54516111 36.92277757 -53.875 33.9375 C-52.03261979 32.76161266 -50.1901724 31.58583057 -48.34765625 30.41015625 C-47.45320801 29.8392627 -46.55875977 29.26836914 -45.63720703 28.68017578 C-39.23452594 24.60100051 -32.80948232 20.55709745 -26.38818359 16.50732422 C-23.8475254 14.90376424 -21.30838095 13.29782787 -18.76953125 11.69140625 C-17.9086792 11.14693848 -17.04782715 10.6024707 -16.16088867 10.04150391 C-14.51625276 9.00123646 -12.87186878 7.96057059 -11.2277832 6.91943359 C-7.51017414 4.56896609 -3.78586267 2.23984305 0 0 Z " fill="#EC1B23" transform="translate(219,24)"/>
  <path d="M0 0 C7.78258743 4.333833 15.20743717 9.06621148 22.59375 14.03442383 C28.82031713 18.22158506 35.0866946 22.34366877 41.375 26.4375 C42.3455835 27.06946289 43.31616699 27.70142578 44.31616211 28.35253906 C47.21024204 30.23584646 50.10507127 32.11799767 53 34 C54.7708721 35.15228418 56.54170671 36.30462597 58.3125 37.45703125 C59.579729 38.28122559 59.579729 38.28122559 60.87255859 39.12207031 C62.52177293 40.19494458 64.17054682 41.26849625 65.81884766 42.34277344 C69.87178392 44.98116837 73.93600101 47.59891466 78.0234375 50.18359375 C79.21767334 50.9430127 79.21767334 50.9430127 80.43603516 51.71777344 C81.9449757 52.67618472 83.45752451 53.62894559 84.97412109 54.57519531 C86.68406496 55.66420984 88.34788054 56.82511194 90 58 C90 58.66 90 59.32 90 60 C88.09838867 61.41357422 88.09838867 61.41357422 85.41796875 63.0546875 C83.94009888 63.9677063 83.94009888 63.9677063 82.43237305 64.89916992 C81.36156494 65.55119385 80.29075684 66.20321777 79.1875 66.875 C76.96849348 68.24307359 74.74974634 69.61156799 72.53125 70.98046875 C71.42265625 71.66157715 70.3140625 72.34268555 69.171875 73.04443359 C64.82270138 75.72584375 60.50254315 78.45162397 56.1875 81.1875 C54.6497922 82.16023943 53.11203202 83.13289606 51.57421875 84.10546875 C50.82188965 84.58161621 50.06956055 85.05776367 49.29443359 85.54833984 C45.3645404 88.03473535 41.43211033 90.51711292 37.5 93 C35.92707561 93.99347735 34.35415894 94.98696694 32.78125 95.98046875 C29.5107418 98.04608833 26.23985975 100.11111441 22.96875 102.17578125 C22.14246094 102.69760986 21.31617187 103.21943848 20.46484375 103.75708008 C18.84327206 104.78035991 17.22089745 105.80236865 15.59765625 106.82299805 C12.19800561 108.96318705 8.80900841 111.11174438 5.46875 113.34375 C4.4890625 113.9934375 3.509375 114.643125 2.5 115.3125 C1.27796875 116.14201172 1.27796875 116.14201172 0.03125 116.98828125 C-2 118 -2 118 -5 117 C-7.17206156 111.49671153 -7.29138992 106.30413304 -7.2746582 100.44384766 C-7.27976913 99.51118576 -7.28488007 98.57852386 -7.29014587 97.61759949 C-7.30398937 94.54968764 -7.30308897 91.48200178 -7.30078125 88.4140625 C-7.30467117 86.27086301 -7.30900645 84.12766429 -7.31376648 81.98446655 C-7.32121752 77.49743142 -7.32094557 73.01047499 -7.31567383 68.5234375 C-7.30988202 62.78822805 -7.32680885 57.05334184 -7.3500185 51.31818581 C-7.3647879 46.89309828 -7.36562315 42.46808801 -7.36250877 38.04298019 C-7.36302041 35.92918635 -7.36822848 33.81538801 -7.37832069 31.70161819 C-7.39072933 28.73918217 -7.3838667 25.77736831 -7.37231445 22.81494141 C-7.37995819 21.95127457 -7.38760193 21.08760773 -7.39547729 20.19776917 C-7.33679344 13.35054737 -6.36492587 6.77034174 -1.8125 1.4375 C-1.214375 0.963125 -0.61625 0.48875 0 0 Z " fill="#ED1C24" transform="translate(22,23)"/>
  <path d="M0 0 C1.41701851 -0.00299751 2.83403621 -0.00640139 4.25105286 -0.01017761 C8.07778857 -0.01896287 11.90450188 -0.02135344 15.73124671 -0.0219934 C18.12930833 -0.02270716 20.52736436 -0.02484765 22.92542458 -0.02749062 C31.31226585 -0.03672682 39.6990913 -0.04082778 48.0859375 -0.04003906 C55.86968993 -0.03943915 63.65337287 -0.04997851 71.43710774 -0.06578273 C78.14743455 -0.07891569 84.8577388 -0.08422054 91.56807834 -0.08358365 C95.56352965 -0.0833303 99.55891916 -0.08609057 103.55435753 -0.0967617 C107.317816 -0.10653987 111.08115482 -0.10645633 114.84461784 -0.09924507 C116.86003077 -0.09772358 118.87544393 -0.10597804 120.89083862 -0.11468506 C130.91357136 -0.08063626 141.50064876 0.02691184 150.7980957 4.14526367 C147.5922994 6.78238767 144.36403181 9.14418535 140.83325195 11.32495117 C139.8795874 11.91687256 138.92592285 12.50879395 137.94335938 13.11865234 C136.92604736 13.74618408 135.90873535 14.37371582 134.8605957 15.02026367 C132.69085019 16.36715555 130.52158979 17.71482919 128.3527832 19.06323242 C127.25675781 19.74434082 126.16073242 20.42544922 125.03149414 21.12719727 C120.16350778 24.16546178 115.32282465 27.24584214 110.4855957 30.33276367 C108.66791468 31.49166068 106.85020669 32.65051538 105.0324707 33.80932617 C103.71859375 34.64705566 103.71859375 34.64705566 102.37817383 35.50170898 C96.80681917 39.0507589 91.22769175 42.58691171 85.63012695 46.09448242 C82.10158482 48.30871412 78.60828157 50.57167318 75.12231445 52.85229492 C73.22275177 54.075226 71.32301583 55.29788799 69.4230957 56.52026367 C68.53678467 57.11073486 67.65047363 57.70120605 66.73730469 58.30957031 C65.48735718 59.10609009 65.48735718 59.10609009 64.2121582 59.91870117 C63.4794873 60.39742676 62.74681641 60.87615234 61.99194336 61.36938477 C59.7980957 62.14526367 59.7980957 62.14526367 57.29418945 61.44848633 C54.94004245 60.21937476 52.68546532 58.94807521 50.4465332 57.52026367 C49.60880371 56.98755859 48.77107422 56.45485352 47.90795898 55.90600586 C47.0054541 55.32496094 46.10294922 54.74391602 45.1730957 54.14526367 C44.22031738 53.53585938 43.26753906 52.92645508 42.28588867 52.29858398 C33.84489604 46.8740748 25.50282943 41.30475048 17.16812134 35.71914673 C10.62127675 31.33270013 4.06573387 26.97483965 -2.6394043 22.83276367 C-8.86025127 18.98824997 -15.04690543 15.0945997 -21.2019043 11.14526367 C-22.09449951 10.58025146 -22.98709473 10.01523926 -23.90673828 9.43310547 C-25.13565796 8.64093628 -25.13565796 8.64093628 -26.3894043 7.83276367 C-27.12545898 7.36225586 -27.86151367 6.89174805 -28.61987305 6.40698242 C-29.14194336 5.99061523 -29.66401367 5.57424805 -30.2019043 5.14526367 C-30.2019043 4.48526367 -30.2019043 3.82526367 -30.2019043 3.14526367 C-20.24518157 -0.03241379 -10.36979576 -0.00358502 0 0 Z " fill="#ED1C24" transform="translate(61.201904296875,14.854736328125)"/>
  <path d="M0 0 C1.0635238 -0.00551503 1.0635238 -0.00551503 2.14853293 -0.01114148 C4.51875289 -0.02213343 6.88892895 -0.02601457 9.25917053 -0.02983093 C10.9613102 -0.03609919 12.6634485 -0.04274631 14.36558533 -0.04974365 C19.95258131 -0.07075102 25.53957746 -0.08114594 31.12660217 -0.09111023 C33.05452043 -0.09515964 34.98243855 -0.09927662 36.91035652 -0.10346031 C45.97339487 -0.12250814 55.03642511 -0.13673757 64.09947962 -0.14507228 C74.53616894 -0.15483027 84.97264536 -0.18111388 95.40925974 -0.22157317 C103.49104291 -0.25182004 111.57276538 -0.26654943 119.65460402 -0.26985329 C124.4740247 -0.27219484 129.29321785 -0.28103748 134.11257744 -0.30631447 C138.65414996 -0.32974933 143.19534765 -0.33376708 147.73696518 -0.32355309 C149.39364818 -0.32306127 151.05035061 -0.3292758 152.70697594 -0.34310913 C167.09094707 -0.45638888 180.69747629 0.99986926 191.84925842 11.14717102 C196.35993064 16.1746911 200.08931916 21.08676508 200.11668396 28.01612854 C200.12947891 29.48371864 200.12947891 29.48371864 200.14253235 30.98095703 C200.14117279 32.58158745 200.14117279 32.58158745 200.13978577 34.21455383 C200.14650299 35.34345535 200.15322021 36.47235687 200.16014099 37.63546753 C200.17916464 41.37378828 200.18304764 45.11192985 200.18519592 48.85029602 C200.19162158 51.44858372 200.19834977 54.04687069 200.20536804 56.64515686 C200.21735231 62.09588098 200.22113337 67.54653399 200.21986389 72.99726868 C200.21866388 79.28437273 200.23973833 85.57113272 200.27135122 91.85814977 C200.30073074 97.91833896 200.30783789 103.97834248 200.30664444 110.03861237 C200.30900254 112.61097873 200.31783775 115.18334772 200.33330917 117.75566864 C200.35294458 121.35813761 200.34713928 124.95972639 200.33509827 128.56221008 C200.34633728 129.6212001 200.35757629 130.68019012 200.36915588 131.77127075 C200.30230633 139.65771266 198.66736874 144.96776451 193.41175842 150.89717102 C192.56613342 151.63967102 191.72050842 152.38217102 190.84925842 153.14717102 C190.14800842 153.80717102 189.44675842 154.46717102 188.72425842 155.14717102 C176.02316378 163.98271512 162.33649504 164.44832763 147.36903381 164.42182922 C145.7317278 164.42618474 144.09442381 164.43137066 142.4571228 164.43731689 C138.03973071 164.45062663 133.62242459 164.45129466 129.20501637 164.4487536 C125.50493486 164.44767859 121.80487037 164.45258063 118.10479254 164.45735902 C109.37026868 164.46842605 100.63578784 164.46890718 91.90126038 164.46284485 C82.91656363 164.45680444 73.93202346 164.46912424 64.94735342 164.49041492 C57.20771991 164.50807498 49.46813604 164.51402542 41.72848314 164.51077718 C37.11718412 164.50897148 32.50599687 164.51152894 27.89471626 164.52549171 C23.55665072 164.53813773 19.21882806 164.53606245 14.88076591 164.52308083 C13.29742727 164.52073032 11.71407115 164.52339437 10.13075256 164.53170395 C-4.28134313 164.60183336 -19.40808579 163.01556123 -30.61167908 152.93232727 C-35.32431095 147.81988728 -38.36783947 143.41092471 -38.44940186 136.27857971 C-38.46490082 135.32549927 -38.48039978 134.37241882 -38.49636841 133.39045715 C-38.50324173 132.35658875 -38.51011505 131.32272034 -38.51719666 130.25752258 C-38.53206116 129.15934204 -38.54692566 128.0611615 -38.5622406 126.92970276 C-38.60842098 123.29910465 -38.64003219 119.66855956 -38.67027283 116.03779602 C-38.69661107 113.51059038 -38.72336564 110.98338904 -38.7505188 108.45619202 C-38.80495684 103.15693222 -38.85186096 97.85767275 -38.8936615 92.55830383 C-38.94204333 86.45004612 -39.00890585 80.34218724 -39.08482629 74.23421502 C-39.15727925 68.34129312 -39.21247715 62.4482924 -39.26106834 56.55512238 C-39.28375744 54.05611565 -39.31130736 51.55714804 -39.34386635 49.05825043 C-39.38774571 45.55690964 -39.41192344 42.05594858 -39.43125916 38.55439758 C-39.44825363 37.5286261 -39.46524811 36.50285461 -39.48275757 35.44599915 C-39.49432677 27.47590036 -38.45915798 19.83954762 -32.77574158 13.83467102 C-32.2111322 13.21978821 -31.64652283 12.6049054 -31.06480408 11.97138977 C-27.04920685 8.14427976 -23.30832814 5.54507273 -18.15074158 3.45967102 C-16.63480408 2.83512024 -16.63480408 2.83512024 -15.08824158 2.19795227 C-9.98574325 0.37272348 -5.41304513 0.0182474 0 0 Z M-28.58824158 18.45967102 C-32.74717603 25.61303829 -33.59313013 33.20767174 -33.52305603 41.3351593 C-33.5267067 42.29912628 -33.53035736 43.26309326 -33.53411865 44.25627136 C-33.54215716 47.41019372 -33.52867188 50.56359145 -33.51402283 53.71748352 C-33.5135035 55.92605082 -33.514024 58.13461858 -33.51553345 60.34318542 C-33.51544403 64.95776832 -33.50507508 69.5721754 -33.48692322 74.1867218 C-33.4642107 80.08892221 -33.46370016 85.99086671 -33.47044086 91.89309883 C-33.4737884 96.44853473 -33.46713637 101.00391272 -33.45731163 105.55933762 C-33.45347491 107.73535229 -33.45230505 109.91137342 -33.45389748 112.0873909 C-33.45427002 115.13104193 -33.44159577 118.17436956 -33.42539978 121.2179718 C-33.4278772 122.108573 -33.43035461 122.99917419 -33.4329071 123.91676331 C-33.356529 132.95044208 -31.80667294 139.99690621 -25.56871033 146.89717102 C-17.27221097 155.00154092 -5.85755595 158.25879584 5.51992798 158.28761292 C6.1772688 158.29058404 6.83460961 158.29355516 7.51186985 158.29661632 C9.70710942 158.30526431 11.90229421 158.30680827 14.09754944 158.30830383 C15.67485672 158.31293491 17.2521629 158.31795996 18.82946777 158.323349 C23.1108322 158.3364504 27.39218095 158.34291399 31.67356229 158.34735966 C34.35233281 158.35029511 37.0310991 158.35440089 39.70986748 158.35886383 C48.10228059 158.37253519 56.49468396 158.38220261 64.88710743 158.38606572 C74.55347557 158.39054037 84.21970188 158.40806216 93.88602692 158.43706632 C101.37075732 158.45873943 108.855448 158.46877306 116.34020942 158.47010684 C120.80405667 158.47115119 125.26777053 158.47697943 129.73158455 158.49492645 C133.93659315 158.51150391 138.14136951 158.51351613 142.34639931 158.50478745 C143.88136165 158.50402211 145.41633698 158.50829249 146.95126724 158.5182457 C161.02207857 158.6040627 175.19275051 157.08749303 186.02113342 147.15498352 C192.31804833 140.25960149 193.14957963 134.73114658 193.15565491 125.60884094 C193.16814018 124.01768211 193.16814018 124.01768211 193.18087769 122.39437866 C193.2049666 118.88876165 193.21374859 115.38333076 193.22035217 111.87763977 C193.22931935 109.43772323 193.23844121 106.99780725 193.24771118 104.55789185 C193.26420074 99.44269983 193.27190125 94.32757326 193.27479553 89.21235657 C193.28017908 82.66524675 193.31785922 76.11875396 193.3635397 69.57181835 C193.39331543 64.53169521 193.40051922 59.49172056 193.40152168 54.45151711 C193.40572292 52.03822822 193.41815323 49.62493884 193.43903923 47.21173668 C193.46596248 43.83192739 193.46112411 40.45354727 193.44862366 37.07368469 C193.46345795 36.08172089 193.47829224 35.08975708 193.49357605 34.06773376 C193.41216835 26.31913947 190.97342533 21.82226628 186.03285217 16.01045227 C177.48505411 8.41878374 167.34701208 5.04020151 156.03346252 5 C155.36049306 4.99632331 154.6875236 4.99264662 153.99416113 4.98885852 C151.74598259 4.97787254 149.49785035 4.97398648 147.24964905 4.97016907 C145.63455561 4.9639004 144.01946361 4.95725324 142.40437317 4.95025635 C137.10476172 4.92925528 131.80515013 4.91885519 126.50550842 4.90888977 C124.67662542 4.90484024 122.84774256 4.90072325 121.01885986 4.89653969 C112.42194983 4.87749387 103.82504834 4.86326358 95.22812128 4.85492772 C85.3279716 4.84516811 75.42804626 4.81887942 65.52797556 4.77842683 C57.86149111 4.74818403 50.19507065 4.73345099 42.52852774 4.73014671 C37.95673244 4.72780485 33.38517696 4.7189581 28.81344604 4.69368553 C24.50579176 4.6702575 20.19853268 4.66623016 15.89083099 4.67644691 C14.3191928 4.67693888 12.74753416 4.6707197 11.17595673 4.65689087 C-4.3778266 4.52780676 -17.02141577 7.48601577 -28.58824158 18.45967102 Z " fill="#167030" transform="translate(40.15074157714844,2.8528289794921875)"/>
  <path d="M0 0 C2.875 1.8125 2.875 1.8125 5 5 C6.00709788 10.41721198 5.96584744 14.55122884 2.875 19.1875 C-0.50188906 21.31640832 -2.08263344 21.6667858 -6 21 C-9.1359157 19.22015595 -9.84102736 18.47691793 -11 15 C-11.52482505 9.61045043 -11.55572612 5.3762783 -8 1 C-5.11138291 -0.44430855 -3.20352299 -0.37688506 0 0 Z " fill="#000000" transform="translate(206,81)"/>
  <path d="M0 0 C3 0.5625 3 0.5625 5.375 1.875 C7.99879814 6.21435846 7.73312699 10.63259502 7 15.5625 C5.375 18.25 5.375 18.25 3 19.5625 C0 20.125 0 20.125 -3 19.5625 C-5.63231951 17.41508145 -6.78562464 15.7721895 -7.3828125 12.40234375 C-7.58168486 8.43152561 -7.26039029 6.05323554 -5.375 2.5 C-3 0.5625 -3 0.5625 0 0 Z " fill="#000000" transform="translate(86,15.4375)"/>
  <path d="M0 0 C2.4375 1.5 2.4375 1.5 4 4 C4.80414661 8.04560357 4.63828902 10.97873756 2.4375 14.5 C-0.94888329 16.58392818 -3.09385318 16.55802097 -7 16 C-9.4375 14.5 -9.4375 14.5 -11 12 C-11.80414661 7.95439643 -11.63828902 5.02126244 -9.4375 1.5 C-6.05111671 -0.58392818 -3.90614682 -0.55802097 0 0 Z " fill="#000000" transform="translate(80,71)"/>
  <path d="M0 0 C2 1 2 1 3 3 C3.51981506 6.56444611 3.63102777 9.73794446 2 13 C-1.26205554 14.63102777 -4.43555389 14.51981506 -8 14 C-10 13 -10 13 -11 11 C-11.51981506 7.43555389 -11.63102777 4.26205554 -10 1 C-6.73794446 -0.63102777 -3.56444611 -0.51981506 0 0 Z " fill="#000000" transform="translate(107,40)"/>
  <path d="M0 0 C2.15174713 1.60623378 2.906388 2.49339389 3.3984375 5.15625 C3.39070312 5.9296875 3.38296875 6.703125 3.375 7.5 C3.38273438 8.2734375 3.39046875 9.046875 3.3984375 9.84375 C2.906388 12.50660611 2.15174713 13.39376622 0 15 C-5.13939394 15.64242424 -5.13939394 15.64242424 -7.6640625 13.7578125 C-9.35152036 11.53747321 -9.4026536 10.26536019 -9.375 7.5 C-9.38273438 6.7265625 -9.39046875 5.953125 -9.3984375 5.15625 C-8.41808061 -0.1492108 -4.82244972 -0.60280621 0 0 Z " fill="#000000" transform="translate(217,41)"/>
  <path d="M0 0 C1.670625 0.4021875 1.670625 0.4021875 3.375 0.8125 C4.53843227 3.13936453 4.57395988 4.65971413 4.625 7.25 C4.66367188 8.42369141 4.66367188 8.42369141 4.703125 9.62109375 C4.29462728 12.34927498 3.54227539 13.1566611 1.375 14.8125 C0.385 15.1425 -0.605 15.4725 -1.625 15.8125 C-4.3125 14.4375 -4.3125 14.4375 -6.625 11.8125 C-7.22925374 8.7357952 -7.30245965 5.87800493 -6.625 2.8125 C-4.39727091 -0.24229019 -3.98487626 -0.20611429 0 0 Z " fill="#000000" transform="translate(138.625,36.1875)"/>
  <path d="M0 0 C1.875 1 1.875 1 3 3 C3.53967465 6.59783102 3.68523932 9.78179676 1.875 13 C-0.89815624 14.47901666 -2.91184125 14.38601984 -6 14 C-7.875 13 -7.875 13 -9 11 C-9.53967465 7.40216898 -9.68523932 4.21820324 -7.875 1 C-5.10184376 -0.47901666 -3.08815875 -0.38601984 0 0 Z " fill="#000000" transform="translate(122,101)"/>
  <path d="M0 0 C2.67431489 1.81163267 2.95920359 2.87761077 4 6 C2.99500868 8.62843884 2.55192629 9.72403685 0 11 C-7.12219451 11.45220283 -7.12219451 11.45220283 -10.0625 9.9375 C-11.582054 6.7970884 -10.79288609 4.29352683 -10 1 C-6.82178465 -0.58910767 -3.46060271 -0.40420974 0 0 Z " fill="#000000" transform="translate(94,134)"/>
  <path d="M0 0 C3 -0.3125 3 -0.3125 6 0 C8 2 8 2 8.265625 4.3125 C8.26046875 5.199375 8.2553125 6.08625 8.25 7 C8.25515625 7.886875 8.2603125 8.77375 8.265625 9.6875 C8 12 8 12 6 14 C3 14.3125 3 14.3125 0 14 C-1.99825961 11.00261059 -2.27550398 10.36652492 -2.25 7 C-2.25515625 6.319375 -2.2603125 5.63875 -2.265625 4.9375 C-2 3 -2 3 0 0 Z " fill="#000000" transform="translate(41,71)"/>
  <path d="M0 0 C3 -0.3125 3 -0.3125 6 0 C8 2 8 2 8.265625 4.09375 C8.26046875 4.8878125 8.2553125 5.681875 8.25 6.5 C8.25515625 7.2940625 8.2603125 8.088125 8.265625 8.90625 C8 11 8 11 6 13 C3 13.3125 3 13.3125 0 13 C-2.45811625 9.31282562 -2.31118164 7.35654296 -2 3 C-1.34 2.01 -0.68 1.02 0 0 Z " fill="#000000" transform="translate(31,106)"/>
  <path d="M0 0 C2.31332486 3.46998729 2.33957563 4.92509248 2 9 C1.01 10.485 1.01 10.485 0 12 C-3.5 12.375 -3.5 12.375 -7 12 C-9.31282587 8.53076119 -9.42478586 7.07794425 -9 3 C-6.79614804 -0.6730866 -4.01201782 -0.51217249 0 0 Z " fill="#000000" transform="translate(145,112)"/>
  <path d="M0 0 C2.31332486 3.46998729 2.33957563 4.92509248 2 9 C1.01 10.485 1.01 10.485 0 12 C-3.5 12.375 -3.5 12.375 -7 12 C-9.31282587 8.53076119 -9.42478586 7.07794425 -9 3 C-6.79614804 -0.6730866 -4.01201782 -0.51217249 0 0 Z " fill="#000000" transform="translate(169,79)"/>
  <path d="M0 0 C3.5625 0.4375 3.5625 0.4375 5.625 2.625 C6.5625 5.4375 6.5625 5.4375 6.0625 8.125 C4.5625 10.4375 4.5625 10.4375 2.25 11.9375 C-0.4375 12.4375 -0.4375 12.4375 -3.25 11.5 C-5.4375 9.4375 -5.4375 9.4375 -5.875 5.875 C-5.28281327 1.22210429 -4.65289571 0.59218673 0 0 Z " fill="#000000" transform="translate(173.4375,131.5625)"/>
  <path d="M0 0 C3.5625 0.4375 3.5625 0.4375 5.625 2.625 C6.5625 5.4375 6.5625 5.4375 6.0625 8.125 C4.5625 10.4375 4.5625 10.4375 2.25 11.9375 C-0.4375 12.4375 -0.4375 12.4375 -3.25 11.5 C-5.4375 9.4375 -5.4375 9.4375 -5.875 5.875 C-5.28281327 1.22210429 -4.65289571 0.59218673 0 0 Z " fill="#000000" transform="translate(153.4375,21.5625)"/>
  <path d="M0 0 C4.55555556 0.55555556 4.55555556 0.55555556 6 2 C6.09851171 3.83115883 6.12972629 5.66619933 6.125 7.5 C6.12757812 8.5003125 6.13015625 9.500625 6.1328125 10.53125 C6 13 6 13 5 14 C3.00041636 14.04080783 0.99954746 14.04254356 -1 14 C-2.23887548 11.52224905 -2.16741669 9.76346293 -2.1875 7 C-2.20167969 6.113125 -2.21585938 5.22625 -2.23046875 4.3125 C-2 2 -2 2 0 0 Z " fill="#000000" transform="translate(34,44)"/>
  <path d="M0 0 C4.55555556 0.55555556 4.55555556 0.55555556 6 2 C6.1328125 3.8125 6.1328125 3.8125 6.125 6 C6.12757813 6.721875 6.13015625 7.44375 6.1328125 8.1875 C6 10 6 10 5 11 C2.5625 11.1875 2.5625 11.1875 0 11 C-2 9 -2 9 -2.25 5.5 C-2 2 -2 2 0 0 Z " fill="#000000" transform="translate(133,130)"/>
  <path d="M0 0 C3.125 0.375 3.125 0.375 6 1 C6.09765625 7.15234375 6.09765625 7.15234375 6 9 C5 10 5 10 2 10.125 C-1 10 -1 10 -2 9 C-2.1875 5.5625 -2.1875 5.5625 -2 2 C-1.34 1.34 -0.68 0.68 0 0 Z " fill="#000000" transform="translate(198,66)"/>
  <path d="M0 0 C2.0625 0.4375 2.0625 0.4375 4 1 C4.33 2.65 4.66 4.3 5 6 C2.625 6.625 2.625 6.625 0 7 C-0.66 6.34 -1.32 5.68 -2 5 C-1.46428571 1.46428571 -1.46428571 1.46428571 0 0 Z " fill="#000000" transform="translate(68,137)"/>
  <path d="M0 0 C2.0625 0.4375 2.0625 0.4375 4 1 C4.33 2.65 4.66 4.3 5 6 C2.625 6.625 2.625 6.625 0 7 C-0.66 6.34 -1.32 5.68 -2 5 C-1.46428571 1.46428571 -1.46428571 1.46428571 0 0 Z " fill="#000000" transform="translate(97,113)"/>
  <path d="M0 0 C2.0625 0.4375 2.0625 0.4375 4 1 C4.33 2.65 4.66 4.3 5 6 C2.625 6.625 2.625 6.625 0 7 C-0.66 6.34 -1.32 5.68 -2 5 C-1.46428571 1.46428571 -1.46428571 1.46428571 0 0 Z " fill="#000000" transform="translate(186,61)"/>
</svg>